<svg width="17" height="17" viewBox="0 0 17 17" fill="none" xmlns="http://www.w3.org/2000/svg">
<g clip-path="url(#clip0_422_125)">
<path d="M14.4819 14.4877H11.9675V10.5421C11.9675 9.60128 11.9478 8.39216 10.6526 8.39216C9.3415 8.39216 9.14175 9.41269 9.14175 10.4725V14.4872H6.62416V6.37447H9.04241V7.48106H9.07481C9.41269 6.84197 10.2345 6.16994 11.4607 6.16994C14.0112 6.16994 14.4845 7.84922 14.4845 10.0327V14.4872L14.4819 14.4877ZM3.77984 5.26575C3.58768 5.26582 3.39739 5.22798 3.21987 5.15439C3.04235 5.0808 2.88109 4.97292 2.74533 4.83691C2.60957 4.70091 2.50198 4.53945 2.42872 4.3618C2.35545 4.18415 2.31796 3.99379 2.31837 3.80163C2.31869 3.51239 2.40476 3.22974 2.5657 2.98941C2.72665 2.74909 2.95524 2.56188 3.22257 2.45146C3.4899 2.34104 3.78397 2.31236 4.0676 2.36906C4.35123 2.42576 4.61167 2.56528 4.81601 2.76999C5.02035 2.9747 5.1594 3.2354 5.21558 3.51913C5.27176 3.80286 5.24256 4.09688 5.13165 4.36401C5.02075 4.63114 4.83312 4.85939 4.59251 5.0199C4.35189 5.1804 4.06908 5.26596 3.77984 5.26575ZM5.04103 14.4877H2.51812V6.375H5.04103V14.4877ZM15.7441 0H1.25375C0.561531 0 0 0.547719 0 1.22559V15.7749C0 16.4528 0.561531 17.0005 1.25375 17.0005H15.7415C16.4326 17.0005 17 16.4528 17 15.7749V1.22559C17 0.547719 16.4326 0 15.7415 0H15.7441Z" fill="black"/>
</g>
<defs>
<clipPath id="clip0_422_125">
<rect width="17" height="17" fill="white"/>
</clipPath>
</defs>
</svg>
