<svg width="520" height="676" viewBox="0 0 520 676" fill="none" xmlns="http://www.w3.org/2000/svg">
<g opacity="0.3">
<path opacity="0.6" fill-rule="evenodd" clip-rule="evenodd" d="M293.941 1.44034C407.353 -3.44733 532.558 31.9246 591.463 129.048C645.818 218.669 581.116 324.832 550.974 425.239C524.844 512.28 514.202 614.878 433.255 656.063C351.069 697.877 252.857 663.918 173.213 617.436C101.944 575.841 62.3427 503.846 37.5152 425.1C8.84175 334.156 -22.4659 234.944 26.903 153.378C82.7189 61.1608 186.317 6.07862 293.941 1.44034Z" stroke="black"/>
<path opacity="0.6" fill-rule="evenodd" clip-rule="evenodd" d="M298.418 118.151C372.178 114.958 453.608 138.064 491.918 201.507C527.269 260.05 485.188 329.398 465.585 394.987C448.591 451.844 441.67 518.864 389.024 545.767C335.572 573.081 271.698 550.898 219.9 520.535C173.549 493.364 147.793 446.335 131.646 394.896C112.998 335.489 92.6364 270.681 124.744 217.4C161.045 157.161 228.422 121.18 298.418 118.151Z" stroke="black"/>
<path opacity="0.6" fill-rule="evenodd" clip-rule="evenodd" d="M302.288 221.29C341.772 219.595 385.362 231.861 405.87 265.541C424.793 296.619 402.267 333.433 391.773 368.252C382.676 398.436 378.972 434.014 350.79 448.296C322.177 462.796 287.985 451.02 260.257 434.901C235.444 420.477 221.657 395.511 213.014 368.204C203.031 336.667 192.131 302.263 209.319 273.978C228.751 241.999 264.819 222.898 302.288 221.29Z" stroke="black"/>
</g>
<g opacity="0.3">
<path opacity="0.6" fill-rule="evenodd" clip-rule="evenodd" d="M293.941 1.44034C407.353 -3.44733 532.558 31.9246 591.463 129.048C645.818 218.669 581.116 324.832 550.974 425.239C524.844 512.28 514.202 614.878 433.255 656.063C351.069 697.877 252.857 663.918 173.213 617.436C101.944 575.841 62.3427 503.846 37.5152 425.1C8.84175 334.156 -22.4659 234.944 26.903 153.378C82.7189 61.1608 186.317 6.07862 293.941 1.44034Z" stroke="black"/>
<path opacity="0.6" fill-rule="evenodd" clip-rule="evenodd" d="M298.418 118.151C372.178 114.958 453.608 138.064 491.918 201.507C527.269 260.05 485.188 329.398 465.585 394.987C448.591 451.844 441.67 518.864 389.024 545.767C335.572 573.081 271.698 550.898 219.9 520.535C173.549 493.364 147.793 446.335 131.646 394.896C112.998 335.489 92.6364 270.681 124.744 217.4C161.045 157.161 228.422 121.18 298.418 118.151Z" stroke="black"/>
<path opacity="0.6" fill-rule="evenodd" clip-rule="evenodd" d="M302.288 221.29C341.772 219.595 385.362 231.861 405.87 265.541C424.793 296.619 402.267 333.433 391.773 368.252C382.676 398.436 378.972 434.014 350.79 448.296C322.177 462.796 287.985 451.02 260.257 434.901C235.444 420.477 221.657 395.511 213.014 368.204C203.031 336.667 192.131 302.263 209.319 273.978C228.751 241.999 264.819 222.898 302.288 221.29Z" stroke="black"/>
</g>
</svg>
