<svg width="19" height="17" viewBox="0 0 19 17" fill="none" xmlns="http://www.w3.org/2000/svg">
<path d="M16.9643 0H2.03571C0.91183 0 0 0.815848 0 1.82143V15.1786C0 16.1842 0.91183 17 2.03571 17H16.9643C18.0882 17 19 16.1842 19 15.1786V1.82143C19 0.815848 18.0882 0 16.9643 0ZM14.8904 6.02589C14.8989 6.13214 14.8989 6.24219 14.8989 6.34844C14.8989 9.63839 12.0998 13.4292 6.98504 13.4292C5.40737 13.4292 3.9442 13.0194 2.71429 12.3136C2.93906 12.3364 3.15536 12.344 3.38438 12.344C4.68638 12.344 5.88237 11.9493 6.83661 11.2815C5.61518 11.2587 4.58884 10.5415 4.23683 9.55491C4.66518 9.61183 5.05112 9.61183 5.49219 9.50938C4.21987 9.2779 3.26562 8.27612 3.26562 7.06563V7.03527C3.6346 7.22121 4.06719 7.33504 4.52098 7.35022C4.13947 7.12316 3.82671 6.81513 3.61062 6.45361C3.39454 6.09209 3.28184 5.68832 3.28259 5.27835C3.28259 4.8154 3.4183 4.3904 3.66004 4.02232C5.02991 5.53259 7.08683 6.5192 9.39397 6.62545C8.99955 4.93683 10.4118 3.56696 12.1083 3.56696C12.9098 3.56696 13.6308 3.86674 14.1397 4.35246C14.7674 4.24621 15.3696 4.0375 15.904 3.7529C15.6962 4.32969 15.2594 4.8154 14.6826 5.12277C15.2424 5.06964 15.7853 4.92924 16.2857 4.73571C15.9083 5.23281 15.4333 5.67299 14.8904 6.02589Z" fill="black"/>
</svg>
